<?xml version="1.0" standalone="no"?>
<!DOCTYPE svg PUBLIC "-//W3C//DTD SVG 20010904//EN"
 "http://www.w3.org/TR/2001/REC-SVG-20010904/DTD/svg10.dtd">
<svg version="1.0" xmlns="http://www.w3.org/2000/svg"
 width="1280.000000pt" height="1280.000000pt" viewBox="0 0 1280.000000 1280.000000"
 preserveAspectRatio="xMidYMid meet">
<metadata>
Created by potrace 1.15, written by Peter Selinger 2001-2017
</metadata>
<g transform="translate(0.000000,1280.000000) scale(0.100000,-0.100000)"
fill="#000000" stroke="none">
<path d="M802 10183 l3 -918 145 -72 145 -71 2207 -1 2208 -1 2 -3897 3 -3898
958 -3 957 -2 0 2887 c0 1589 3 3344 7 3901 l6 1012 2227 0 2226 0 145 66 c79
36 150 71 157 76 9 8 12 205 12 924 l0 914 -5705 0 -5705 0 2 -917z"/>
</g>
</svg>
